<svg width="168" height="89" viewBox="0 0 168 89" fill="none" xmlns="http://www.w3.org/2000/svg">
<path d="M84.6343 12.6678C83.9443 9.66968 81.7157 8.48567 79.9815 8.12841C79.2709 7.98201 78.8055 8.75742 78.9485 9.46872C79.2835 11.1343 79.1379 13.7387 76.8978 16.5463C73.077 21.3351 69.1613 18.8735 63.3589 23.5278C59.7753 26.4023 59.6499 29.9241 60.313 32.2729C60.5306 33.0436 61.5285 33.0308 62.0419 32.4162C65.9142 27.7804 74.6457 29.4172 79.2187 26.2428C84.2475 22.7521 85.7947 17.7099 84.6343 12.6678Z" fill="#7B4A02"/>
<path d="M145.01 70.952H130.706V62.984H133.73L133.778 53.72L133.73 44.216H130.706V36.488H145.01V44.216H142.034V62.984H145.01V70.952Z" fill="#352000"/>
<path d="M126.732 70.856C118.428 69.176 112.092 65.144 107.436 59.048C107.004 64.376 103.644 68.84 98.9398 70.856L94.7638 63.608C97.3078 63.032 99.2278 60.728 99.2278 58.04V57.608H96.4438V49.736H99.1798L99.0838 36.488H107.436V49.4C112.908 46.952 117.9 42.296 121.788 36.488L128.316 41.432C124.62 46.904 119.916 51.608 114.444 54.824C118.092 59.336 122.7 62.024 128.316 62.936L126.732 70.856Z" fill="#352000"/>
<path d="M92.3499 71.0959H70.7499C68.1579 71.0959 66.0459 70.9039 63.5499 68.4559C60.9099 65.8159 59.0379 62.2159 59.0379 58.1839V44.3599C58.0299 44.4079 56.9259 44.4079 55.8219 44.4079V36.4879C71.1339 36.3439 64.9899 36.2959 78.2859 36.2959C80.8779 36.2959 82.9899 36.4879 85.4859 38.9359C88.1739 41.5759 89.9979 45.1759 89.9979 49.2079V63.2239H92.3499V71.0959ZM81.6459 63.2239L81.6939 49.2079C81.6939 48.0559 81.3099 46.9999 80.7339 46.0399C79.8219 44.4079 78.7179 44.1679 76.6539 44.1679L67.3899 44.3119L67.3419 58.1839C67.3419 59.3359 67.7739 60.3919 68.3499 61.3519C69.2619 62.9359 70.3179 63.2239 72.3819 63.2239H81.6459Z" fill="#352000"/>
<path d="M39.344 71.096C34.352 68.936 30.848 63.992 30.848 58.232V44.36H25.04V47.144H16.88V36.488H53.408V47.144H45.248V44.36H39.152L39.056 58.232C39.056 60.92 40.976 63.224 43.52 63.848L39.344 71.096Z" fill="#352000"/>
</svg>
